<?xml version="1.0" standalone="no"?>
<!DOCTYPE svg PUBLIC "-//W3C//DTD SVG 20010904//EN"
 "http://www.w3.org/TR/2001/REC-SVG-20010904/DTD/svg10.dtd">
<svg version="1.0" xmlns="http://www.w3.org/2000/svg"
 width="2235.000000pt" height="2267.000000pt" viewBox="0 0 2235.000000 2267.000000"
 preserveAspectRatio="xMidYMid meet">

<g transform="translate(0.000000,2267.000000) scale(0.100000,-0.100000)"
fill="#000000" stroke="none">
<path d="M8685 22109 c-322 -14 -561 -53 -835 -134 -247 -74 -376 -129 -630
-268 -284 -155 -505 -323 -761 -577 -158 -157 -352 -402 -419 -529 -15 -29
-34 -60 -42 -69 -7 -9 -36 -62 -63 -117 -27 -55 -52 -102 -55 -105 -13 -11
-130 -298 -130 -319 0 -12 -8 -38 -19 -59 -37 -73 -101 -345 -125 -532 -8 -63
-20 -198 -26 -300 -15 -267 -35 -411 -64 -469 -14 -26 -51 -72 -84 -103 -48
-44 -76 -61 -148 -86 -108 -38 -180 -57 -299 -78 -307 -53 -733 -198 -1005
-342 -351 -186 -771 -490 -931 -674 -28 -33 -63 -64 -78 -69 -20 -8 -22 -12
-11 -19 11 -7 9 -11 -11 -18 -14 -6 -40 -27 -58 -49 -18 -21 -63 -69 -100
-108 -37 -38 -88 -95 -113 -125 -87 -108 -283 -394 -332 -485 -15 -27 -42 -75
-61 -105 -20 -30 -40 -73 -47 -95 -6 -22 -19 -49 -29 -60 -20 -23 -79 -162
-79 -186 0 -9 -9 -24 -20 -34 -11 -10 -20 -24 -20 -31 0 -14 -59 -170 -90
-239 -30 -65 -96 -298 -131 -458 -10 -48 -26 -115 -34 -147 -34 -130 -46 -261
-55 -598 -11 -393 -3 -566 35 -794 30 -178 47 -245 122 -503 60 -208 144 -428
174 -461 10 -11 19 -31 19 -45 0 -29 99 -211 135 -249 14 -14 25 -34 25 -43 0
-9 17 -27 37 -41 44 -27 65 -50 84 -90 15 -31 81 -70 184 -107 l60 -22 1220
-8 c746 -4 1241 -11 1275 -17 132 -24 236 -60 370 -128 72 -36 151 -112 216
-209 74 -110 113 -296 94 -446 -12 -99 -54 -267 -81 -328 -36 -79 -107 -303
-123 -386 -45 -235 -20 -468 68 -643 61 -121 269 -332 391 -398 28 -15 95 -42
149 -60 99 -34 101 -34 285 -34 148 0 192 3 215 15 17 9 49 20 73 26 41 9 107
38 207 90 22 12 68 44 102 72 34 29 74 60 88 69 28 20 75 84 108 146 12 23 25
42 29 42 13 0 76 143 92 210 32 134 39 215 27 313 -16 133 -48 275 -75 332
-74 159 -137 381 -157 553 -33 287 72 500 317 642 47 27 176 74 272 99 100 27
255 32 1208 41 556 6 1068 14 1138 19 124 9 131 11 223 56 52 25 98 53 101 61
3 8 18 21 34 30 16 8 29 20 29 27 0 6 15 36 34 67 l34 55 12 454 c9 332 9 473
1 525 -6 39 -13 181 -15 316 -3 135 -8 255 -11 267 -4 11 -17 24 -28 27 -12 3
-157 6 -322 6 -462 1 -618 18 -874 96 -516 157 -945 540 -1225 1092 -76 151
-150 350 -187 508 -19 78 -22 127 -26 408 -4 267 -2 335 12 420 37 224 166
534 314 757 38 59 126 168 195 244 70 75 126 141 126 146 0 5 7 9 15 9 8 0 38
23 67 50 28 28 53 50 55 50 1 0 53 32 115 71 189 118 521 268 629 285 24 4 55
12 69 19 14 7 97 24 185 38 125 20 209 27 380 30 214 5 222 5 290 33 86 36
152 98 196 185 l32 64 0 1340 c0 1242 -1 1343 -17 1380 -9 21 -23 46 -30 55
-7 8 -16 28 -20 45 -20 83 -176 234 -338 325 -376 214 -814 350 -1213 379 -61
4 -117 10 -125 13 -8 3 -96 1 -195 -3z"/>
<path d="M14471 21886 c-12 -14 -1 -59 17 -70 13 -8 72 4 72 15 0 5 -16 9 -36
9 -35 0 -36 1 -30 30 6 32 -4 39 -23 16z"/>
<path d="M13305 21824 c-77 -8 -290 -34 -327 -40 -27 -5 -36 -3 -35 7 1 8 -2
15 -8 16 -5 1 -9 -7 -7 -18 2 -18 -2 -20 -29 -14 -20 5 -29 3 -25 -3 3 -5 -4
-12 -17 -15 -100 -24 -188 -52 -228 -73 -27 -13 -64 -24 -84 -24 -22 0 -38 -6
-41 -14 -3 -8 -20 -18 -37 -21 -18 -4 -48 -15 -67 -26 -19 -10 -69 -33 -110
-52 -41 -19 -110 -55 -153 -80 -42 -25 -84 -44 -92 -41 -18 7 -19 16 -3 32 9
9 9 12 1 12 -7 0 -15 -4 -18 -10 -3 -5 -15 -10 -26 -10 -29 0 -23 -19 9 -26
15 -3 31 -7 36 -8 5 -1 -4 -10 -19 -20 -23 -15 -29 -16 -37 -5 -7 11 -8 11 -6
-2 2 -10 -28 -49 -67 -90 -80 -84 -124 -155 -162 -261 l-26 -73 -7 -1735 c-8
-1739 -14 -2029 -45 -2154 -20 -77 -106 -251 -125 -251 -8 0 -15 -8 -15 -17 0
-18 -86 -108 -104 -108 -5 0 -14 -6 -18 -14 -9 -15 -194 -97 -263 -117 -65
-18 -213 -15 -290 5 -111 30 -304 97 -321 112 -8 8 -27 14 -42 14 -14 0 -29 4
-32 10 -3 5 -32 17 -63 26 -31 9 -74 25 -94 35 -50 26 -193 49 -297 49 -257 0
-415 -52 -602 -197 -60 -47 -69 -50 -69 -28 0 9 -9 15 -22 14 -13 0 -17 -3
-10 -6 25 -10 12 -59 -32 -117 -201 -269 -272 -566 -201 -836 36 -133 113
-288 166 -334 24 -20 51 -48 61 -63 17 -26 48 -53 131 -108 130 -88 168 -105
233 -105 22 0 54 -6 70 -14 44 -21 335 -31 438 -15 44 7 85 16 91 21 5 4 22 8
37 8 16 0 46 9 67 20 21 10 41 16 45 13 3 -3 45 8 93 25 242 85 284 94 479 99
151 5 185 3 205 -10 13 -8 43 -18 66 -22 23 -4 53 -15 65 -24 13 -10 37 -25
53 -34 17 -8 60 -42 96 -76 77 -70 138 -176 189 -329 43 -129 48 -228 59
-1217 16 -1310 14 -1255 45 -1315 14 -27 26 -61 26 -74 0 -14 5 -28 10 -31 6
-4 22 -24 36 -46 43 -69 100 -113 147 -114 23 -1 110 -7 192 -14 158 -13 1497
-13 1510 1 4 3 10 192 15 420 9 423 11 444 54 615 67 262 223 567 414 806 79
99 294 322 310 322 4 0 23 12 42 26 85 64 226 149 355 214 124 63 174 82 356
140 110 35 369 67 544 68 277 1 581 -47 785 -123 41 -16 85 -31 98 -35 85 -25
398 -192 492 -263 75 -56 252 -217 305 -277 28 -31 60 -67 72 -80 12 -14 24
-34 28 -45 3 -11 12 -20 19 -20 6 0 22 -21 35 -47 31 -65 88 -160 123 -204 15
-20 28 -45 28 -56 0 -10 11 -41 24 -69 33 -65 100 -279 119 -379 20 -101 23
-128 47 -420 25 -294 35 -361 60 -393 11 -13 20 -31 20 -39 0 -22 120 -143
142 -143 11 0 29 -5 41 -12 12 -7 38 -14 57 -17 54 -8 1224 -7 1230 1 3 4 25
2 49 -4 33 -8 67 -8 130 0 126 17 211 62 302 161 89 95 168 215 215 323 44
101 79 180 104 233 11 22 22 54 26 70 3 17 17 53 30 80 71 149 165 567 198
875 80 748 -70 1606 -395 2251 -24 48 -27 62 -19 90 19 65 7 155 -15 119 -3
-5 -15 -10 -26 -10 -10 0 -19 -6 -19 -12 0 -7 -21 25 -46 72 -25 47 -51 92
-59 100 -7 8 -24 38 -38 65 -36 73 -162 248 -285 399 -58 72 -215 240 -349
372 -227 227 -324 311 -344 298 -5 -3 -9 1 -9 10 0 27 -306 238 -458 315 -36
19 -41 24 -32 41 14 27 13 32 -10 25 -15 -5 -23 3 -41 36 -18 37 -23 40 -31
25 -6 -10 -8 -29 -5 -42 2 -13 3 -24 1 -24 -1 0 -49 23 -105 50 -57 28 -109
48 -115 46 -7 -3 -14 0 -16 6 -8 22 -382 150 -444 150 -24 1 -41 5 -38 9 2 4
-15 13 -38 19 -24 6 -65 18 -93 26 -27 8 -160 35 -294 60 -134 24 -248 47
-254 51 -6 3 -51 11 -101 17 l-91 12 -7 69 c-4 39 -6 153 -4 255 5 346 -21
717 -60 855 l-6 20 16 -20 16 -20 -6 20 c-4 11 -13 25 -21 32 -11 8 -18 47
-24 130 -5 65 -12 134 -15 153 -6 34 -6 35 -16 10 -5 -14 -7 -43 -4 -65 3 -24
-12 8 -38 80 -81 224 -152 385 -176 400 -5 3 -10 14 -10 24 0 10 -9 26 -20 36
-11 10 -25 35 -30 57 -6 21 -19 46 -28 55 -20 20 -56 74 -57 85 0 4 -6 13 -12
19 -7 7 -13 17 -13 22 0 5 -16 27 -35 50 -19 22 -35 47 -35 54 0 7 -7 13 -15
13 -8 0 -15 6 -15 14 0 19 -80 126 -132 178 -24 23 -38 38 -31 35 6 -4 24 -2
38 5 24 11 26 16 21 47 -3 19 0 41 6 48 8 10 7 13 -5 13 -16 0 -27 -20 -27
-50 0 -10 -7 -21 -16 -24 -22 -8 -22 -8 -27 12 -3 12 -5 10 -6 -7 -1 -18 -4
-21 -14 -12 -8 6 -16 9 -19 6 -3 -3 -11 3 -19 12 -13 17 -13 17 6 3 15 -11 14
-8 -4 12 -13 15 -27 25 -31 23 -4 -3 -16 5 -26 17 -11 12 -13 18 -6 14 6 -4
12 -2 12 3 0 6 -17 18 -37 26 -27 11 -34 18 -25 24 11 6 10 11 -3 25 -9 9 -22
16 -29 16 -7 0 -18 10 -25 23 -7 12 -46 49 -86 82 -41 33 -75 63 -75 68 0 4
-5 7 -11 7 -16 0 -139 92 -139 104 0 6 -17 22 -37 36 -21 14 -46 33 -56 44
-14 13 -21 15 -27 6 -5 -8 -26 0 -73 29 -85 52 -163 91 -181 91 -7 0 -16 6
-19 13 -2 7 -22 21 -43 32 -22 11 -47 29 -56 40 -10 11 -18 15 -18 8 0 -8 -28
1 -72 22 -40 19 -87 35 -104 35 -17 0 -43 9 -57 20 -18 15 -27 17 -30 8 -3 -9
-29 -1 -88 29 -61 29 -127 51 -239 77 -317 73 -364 78 -705 81 -170 2 -328 1
-350 -1z"/>
<path d="M14675 21810 c-3 -5 -1 -10 4 -10 6 0 11 5 11 10 0 6 -2 10 -4 10 -3
0 -8 -4 -11 -10z"/>
<path d="M14675 21760 c3 -5 8 -10 11 -10 2 0 4 5 4 10 0 6 -5 10 -11 10 -5 0
-7 -4 -4 -10z"/>
<path d="M14575 21750 c-3 -6 1 -13 10 -16 19 -8 30 0 20 15 -8 14 -22 14 -30
1z"/>
<path d="M14865 21720 c-3 -6 -17 -7 -31 -4 -22 6 -24 3 -24 -25 0 -26 4 -31
24 -31 18 0 29 9 40 32 9 17 16 33 16 35 0 7 -19 2 -25 -7z"/>
<path d="M14890 21670 c0 -5 7 -10 15 -10 8 0 15 5 15 10 0 6 -7 10 -15 10 -8
0 -15 -4 -15 -10z"/>
<path d="M12300 21619 c0 -5 5 -7 10 -4 6 3 10 8 10 11 0 2 -4 4 -10 4 -5 0
-10 -5 -10 -11z"/>
<path d="M12160 21590 c0 -5 5 -10 10 -10 6 0 10 5 10 10 0 6 -4 10 -10 10 -5
0 -10 -4 -10 -10z"/>
<path d="M12250 21590 c0 -5 5 -10 10 -10 6 0 10 5 10 10 0 6 -4 10 -10 10 -5
0 -10 -4 -10 -10z"/>
<path d="M15280 21380 c0 -5 5 -10 11 -10 5 0 7 5 4 10 -3 6 -8 10 -11 10 -2
0 -4 -4 -4 -10z"/>
<path d="M15797 21143 c-10 -9 -9 -23 2 -23 5 0 11 7 15 15 5 15 -5 20 -17 8z"/>
<path d="M15890 20949 c0 -5 5 -7 10 -4 6 3 10 8 10 11 0 2 -4 4 -10 4 -5 0
-10 -5 -10 -11z"/>
<path d="M16005 20870 c12 -41 27 -60 20 -25 -4 17 -11 35 -17 40 -7 7 -8 2
-3 -15z"/>
<path d="M16231 20570 c-14 -8 -7 -30 9 -30 11 0 21 28 12 34 -5 3 -14 1 -21
-4z"/>
<path d="M16225 20510 c-3 -5 -2 -10 4 -10 5 0 13 5 16 10 3 6 2 10 -4 10 -5
0 -13 -4 -16 -10z"/>
<path d="M16350 20400 c0 -11 5 -20 10 -20 6 0 10 9 10 20 0 11 -4 20 -10 20
-5 0 -10 -9 -10 -20z"/>
<path d="M16440 20288 c0 -44 13 -78 26 -66 9 10 -5 96 -17 103 -5 4 -9 -12
-9 -37z"/>
<path d="M16925 18330 c-16 -25 25 -40 55 -20 13 9 13 11 0 20 -19 13 -47 13
-55 0z"/>
<path d="M17259 18241 c-29 -29 -31 -34 -16 -43 26 -14 81 -6 85 13 1 9 -6 26
-16 39 l-19 24 -34 -33z"/>
<path d="M17250 18170 c-12 -8 -12 -10 3 -16 21 -8 35 2 21 16 -5 5 -15 6 -24
0z"/>
<path d="M17665 18159 c-4 -6 -5 -13 -2 -16 7 -7 27 6 27 18 0 12 -17 12 -25
-2z"/>
<path d="M18940 17510 c0 -5 5 -10 10 -10 6 0 10 5 10 10 0 6 -4 10 -10 10 -5
0 -10 -4 -10 -10z"/>
<path d="M18952 17468 c6 -16 36 -34 44 -25 9 9 -15 37 -33 37 -8 0 -13 -5
-11 -12z"/>
<path d="M19021 17464 c12 -15 54 -20 45 -5 -3 5 -17 11 -31 13 -20 4 -23 3
-14 -8z"/>
<path d="M19055 17420 c-3 -5 1 -10 9 -10 9 0 16 5 16 10 0 6 -4 10 -9 10 -6
0 -13 -4 -16 -10z"/>
<path d="M9843 16945 c-3 -9 -3 -19 1 -22 7 -7 36 16 36 28 0 15 -30 10 -37
-6z"/>
<path d="M9710 16935 c-12 -15 -11 -16 16 -13 16 1 28 8 27 13 -3 17 -29 17
-43 0z"/>
<path d="M9800 16931 c0 -12 6 -21 16 -21 9 0 14 7 12 17 -5 25 -28 28 -28 4z"/>
<path d="M10140 16895 c-5 -14 -14 -23 -20 -20 -17 11 -11 -12 10 -36 l20 -24
-6 29 c-7 31 1 30 38 -1 25 -22 31 1 10 38 -23 43 -40 47 -52 14z"/>
<path d="M11500 16890 c-17 -4 -21 -8 -12 -14 6 -4 12 -17 13 -29 l0 -22 16
23 c8 12 22 22 29 22 8 0 14 4 14 9 0 12 -31 18 -60 11z"/>
<path d="M9521 16794 c-18 -8 -46 -14 -62 -14 -15 0 -31 -4 -34 -10 -4 -6 8
-10 29 -10 25 0 36 -4 36 -15 0 -22 11 -18 49 16 39 36 30 54 -18 33z"/>
<path d="M9240 16506 c0 -8 5 -18 10 -21 6 -3 10 1 10 9 0 8 -4 18 -10 21 -5
3 -10 -1 -10 -9z"/>
<path d="M20130 16150 c0 -5 5 -10 10 -10 6 0 10 5 10 10 0 6 -4 10 -10 10 -5
0 -10 -4 -10 -10z"/>
<path d="M15660 13610 c-162 -55 -205 -72 -220 -85 -8 -7 -37 -23 -65 -36
-102 -47 -322 -294 -340 -382 -4 -18 -14 -39 -21 -48 -27 -31 -56 -197 -57
-324 0 -153 14 -219 113 -515 95 -284 114 -370 114 -515 1 -129 -19 -224 -70
-331 -64 -136 -259 -287 -434 -337 -182 -52 -393 -61 -1705 -72 -712 -6 -765
-8 -835 -26 -97 -26 -196 -79 -249 -133 l-43 -43 -8 -214 c-13 -296 -13 -1375
0 -1398 5 -10 17 -21 26 -25 9 -3 136 -26 282 -51 147 -24 332 -58 412 -75 80
-17 165 -34 190 -37 25 -3 54 -12 65 -19 12 -8 59 -21 105 -30 47 -8 93 -23
102 -31 10 -9 40 -18 68 -21 27 -2 50 -8 50 -12 0 -6 35 -23 108 -51 13 -5 28
-7 33 -4 5 4 9 1 9 -5 0 -14 98 -60 128 -60 12 0 22 -4 22 -9 0 -10 192 -121
208 -121 6 0 32 -18 58 -41 26 -22 65 -52 87 -66 55 -35 252 -233 327 -328
125 -160 215 -338 259 -511 46 -182 55 -267 55 -539 0 -224 -3 -278 -22 -390
-54 -312 -148 -592 -299 -887 -176 -345 -424 -608 -733 -775 -85 -47 -284
-121 -410 -153 -109 -28 -361 -70 -421 -70 -32 0 -49 -5 -52 -14 -5 -12 -59
-15 -326 -18 -175 -2 -323 -7 -328 -11 -4 -5 -8 -682 -8 -1505 l0 -1497 38
-67 c21 -36 44 -72 52 -78 21 -18 19 -35 -2 -19 -16 13 -17 12 -4 -4 8 -9 16
-15 19 -12 4 3 13 -9 22 -27 29 -60 311 -254 430 -294 30 -11 60 -24 65 -30 6
-6 26 -17 45 -24 19 -7 50 -19 69 -27 68 -30 168 -62 246 -77 44 -9 107 -25
140 -36 33 -10 125 -32 205 -47 143 -28 150 -28 520 -28 356 0 379 1 456 22
44 12 118 25 165 28 46 4 111 15 144 25 33 10 112 33 175 50 189 52 286 90
460 176 347 174 704 443 939 709 133 150 204 236 230 280 13 22 45 72 71 110
49 72 110 186 110 205 0 6 13 28 29 51 60 82 172 381 234 624 47 182 79 361
112 620 92 730 91 725 179 725 129 0 709 125 772 166 13 9 31 13 40 10 9 -4
22 -1 30 5 7 6 41 17 75 25 35 8 68 18 73 23 6 5 36 16 66 26 77 25 452 195
525 238 189 111 598 403 697 497 26 25 55 50 65 56 10 6 23 20 28 30 16 28
141 154 154 154 6 0 11 5 11 11 0 6 28 39 63 73 74 75 143 156 160 188 7 13
28 44 48 68 46 57 177 253 259 390 165 274 337 705 430 1080 89 359 101 473
101 989 0 468 -4 561 -31 701 -10 52 -26 142 -35 199 -20 123 -50 249 -75 306
-10 23 -21 61 -25 85 -4 25 -13 52 -20 60 -7 8 -18 44 -24 80 -7 36 -21 85
-32 109 -10 24 -19 48 -19 54 0 6 -8 29 -19 51 -10 23 -24 61 -31 86 -15 56
-99 221 -145 286 -89 125 -203 209 -340 250 -56 17 -117 18 -915 15 -842 -3
-1448 9 -1600 30 -179 25 -313 74 -424 153 -162 115 -260 294 -273 496 -6 98
20 313 43 347 8 12 14 27 14 34 0 6 22 66 49 132 51 127 101 295 122 407 29
153 13 364 -37 494 -23 58 -109 198 -143 230 -17 17 -31 35 -31 41 0 20 -125
123 -221 181 -112 68 -205 104 -275 104 -28 0 -71 7 -94 15 -48 17 -156 20
-194 5 -16 -6 -27 -6 -31 0 -9 14 -21 12 -115 -20z m-2783 -4666 c-3 -3 -12
-4 -19 -1 -8 3 -5 6 6 6 11 1 17 -2 13 -5z"/>
<path d="M2640 10959 c-95 -16 -191 -71 -271 -158 -89 -95 -168 -215 -215
-323 -44 -101 -79 -180 -104 -233 -11 -22 -22 -53 -26 -70 -3 -16 -17 -52 -30
-80 -71 -149 -165 -567 -198 -875 -74 -685 43 -1451 316 -2078 78 -181 213
-457 248 -508 17 -25 41 -67 54 -93 36 -70 164 -248 284 -395 58 -72 215 -240
349 -372 227 -227 324 -311 344 -298 5 3 9 -1 9 -10 0 -20 129 -115 289 -215
149 -92 488 -264 507 -257 7 3 14 0 16 -6 8 -22 382 -150 444 -150 24 -1 41
-5 38 -9 -2 -4 15 -13 38 -19 24 -6 66 -18 93 -26 28 -8 158 -35 291 -59 133
-24 253 -49 267 -54 14 -6 60 -13 102 -17 41 -4 79 -12 83 -18 3 -6 9 -211 13
-456 7 -472 14 -554 70 -775 63 -251 217 -654 259 -680 5 -3 10 -14 10 -24 0
-10 9 -26 20 -36 11 -10 25 -35 30 -57 6 -21 19 -46 28 -55 23 -23 57 -76 55
-85 -2 -3 4 -12 12 -18 8 -7 15 -17 15 -22 0 -5 16 -28 35 -51 19 -22 35 -47
35 -54 0 -7 7 -13 15 -13 8 0 15 -6 15 -14 0 -19 80 -127 132 -177 26 -26 34
-37 20 -30 -22 12 -23 11 -13 -7 15 -27 41 -48 41 -32 0 9 3 10 13 1 8 -6 16
-9 19 -6 3 3 11 -3 19 -12 13 -17 13 -17 -6 -3 -15 11 -14 8 4 -12 13 -15 27
-25 31 -23 4 3 16 -5 26 -17 11 -12 13 -18 7 -14 -7 4 -13 2 -13 -3 0 -6 17
-18 37 -26 27 -11 34 -18 25 -24 -11 -6 -10 -11 3 -25 9 -9 23 -16 31 -16 8 0
14 -4 14 -9 0 -27 263 -234 437 -343 111 -70 234 -138 250 -138 6 0 22 -9 35
-21 36 -32 249 -129 284 -129 17 0 43 -9 57 -20 18 -15 27 -17 30 -8 3 9 29 1
88 -29 88 -43 265 -89 519 -135 114 -21 155 -23 470 -23 333 1 426 7 632 41
27 5 36 3 35 -7 -1 -8 3 -14 8 -14 6 0 9 8 7 18 -2 16 3 18 29 12 20 -5 29 -3
25 3 -3 5 4 12 17 15 100 24 188 52 228 73 27 13 64 24 84 24 22 0 38 6 41 14
3 8 20 18 37 21 18 4 48 15 67 26 19 10 69 33 110 52 41 19 110 55 153 80 42
25 84 44 92 41 18 -7 19 -16 3 -32 -9 -9 -9 -12 -1 -12 7 0 15 4 18 10 3 5 15
10 26 10 29 0 23 19 -8 26 -16 3 -32 7 -37 8 -5 1 4 10 19 20 23 15 29 16 37
5 7 -11 8 -11 6 2 -2 10 28 49 67 90 80 84 124 155 162 261 l26 73 7 1735 c8
1736 14 2029 45 2153 26 103 103 244 170 314 34 35 66 63 73 63 6 0 15 6 19
14 9 15 194 97 263 117 65 18 213 15 290 -5 111 -30 304 -97 321 -112 8 -8 27
-14 42 -14 14 0 29 -4 32 -10 3 -5 32 -17 63 -26 31 -9 74 -25 94 -35 83 -42
290 -60 467 -39 235 27 461 167 598 370 75 112 110 179 138 260 61 181 72 371
30 530 -36 133 -113 288 -166 334 -24 20 -51 48 -61 63 -17 26 -48 53 -130
108 -131 88 -169 105 -234 105 -22 0 -54 6 -70 14 -44 21 -335 31 -438 15 -44
-7 -85 -16 -90 -21 -6 -4 -23 -8 -38 -8 -16 0 -46 -9 -67 -20 -21 -10 -41 -16
-45 -13 -3 3 -45 -8 -93 -25 -242 -85 -284 -94 -479 -99 -151 -5 -185 -3 -205
10 -13 8 -43 18 -66 22 -23 4 -53 15 -65 24 -13 10 -36 25 -53 34 -16 8 -60
42 -96 76 -77 70 -138 176 -189 329 -43 129 -48 228 -59 1217 -16 1310 -14
1255 -45 1315 -14 27 -26 61 -26 74 0 14 -5 28 -10 31 -6 4 -22 24 -36 46 -43
69 -100 113 -147 114 -23 1 -109 7 -192 14 -158 13 -1497 13 -1510 -1 -4 -3
-10 -192 -15 -420 -9 -423 -11 -444 -54 -615 -67 -262 -223 -567 -414 -806
-79 -99 -294 -322 -310 -322 -4 0 -23 -12 -42 -26 -85 -64 -226 -149 -355
-214 -124 -63 -174 -82 -356 -140 -110 -35 -369 -67 -544 -68 -277 -1 -581 47
-785 123 -41 16 -85 31 -98 35 -85 25 -398 192 -492 263 -75 56 -252 217 -305
277 -27 31 -60 67 -72 80 -12 14 -24 34 -28 45 -3 11 -12 20 -19 20 -6 0 -22
21 -35 48 -31 64 -88 159 -123 203 -15 20 -28 45 -28 56 0 10 -11 41 -24 69
-33 65 -100 279 -119 379 -20 101 -23 128 -47 420 -25 294 -35 361 -60 393
-11 13 -20 31 -20 39 0 22 -120 143 -142 143 -11 0 -29 5 -41 12 -12 7 -38 14
-57 17 -55 8 -1224 7 -1231 -1 -3 -4 -21 -3 -39 2 -41 12 -93 11 -170 -1z"/>
<path d="M10080 1250 c0 -5 5 -10 10 -10 6 0 10 5 10 10 0 6 -4 10 -10 10 -5
0 -10 -4 -10 -10z"/>
<path d="M10170 1250 c0 -5 5 -10 10 -10 6 0 10 5 10 10 0 6 -4 10 -10 10 -5
0 -10 -4 -10 -10z"/>
<path d="M10035 1220 c-3 -5 -1 -10 4 -10 6 0 11 5 11 10 0 6 -2 10 -4 10 -3
0 -8 -4 -11 -10z"/>
</g>
</svg>
